<?xml version="1.0" encoding="utf-8"?>
<!-- Generator: Adobe Illustrator 23.0.2, SVG Export Plug-In . SVG Version: 6.00 Build 0)  -->
<svg version="1.1" id="Warstwa_1" xmlns="http://www.w3.org/2000/svg" xmlns:xlink="http://www.w3.org/1999/xlink" x="0px" y="0px"
	 viewBox="0 0 1024 600" style="enable-background:new 0 0 1024 600;" xml:space="preserve">
<style type="text/css">
	.st0{fill:none;stroke:#FFFFFF;stroke-width:14.4911;stroke-miterlimit:10;}
	.st1{fill:none;stroke:#FFFFFF;stroke-width:14.4911;stroke-linecap:round;stroke-miterlimit:10;}
	.st2{fill:#FFFFFF;}
</style>
<g>
	<g>
		<ellipse class="st0" cx="182.27" cy="347.29" rx="59.65" ry="60.49"/>
		<line class="st1" x1="241.93" y1="347.29" x2="241.93" y2="30.83"/>
	</g>
	<g>
		<path class="st2" d="M338.79,413.22c-12.35,0-23.32-2.77-32.93-8.32c-9.61-5.54-17.15-13.24-22.62-23.09
			c-5.47-9.84-8.21-21.1-8.21-33.76c0-12.81,2.58-24.1,7.74-33.87c5.16-9.76,12.27-17.46,21.33-23.09
			c9.06-5.63,19.46-8.44,31.18-8.44c11.56,0,21.8,2.7,30.71,8.09c8.91,5.39,15.86,12.82,20.86,22.27c5,9.46,7.5,20.36,7.5,32.7
			c0,2.03-0.63,3.63-1.88,4.81c-1.25,1.17-2.89,1.76-4.92,1.76H284.41v-12.19H391.3l-10.31,7.74c0.31-10.16-1.41-19.14-5.16-26.96
			c-3.75-7.81-9.11-13.95-16.06-18.4c-6.96-4.45-15.12-6.68-24.5-6.68c-8.91,0-16.84,2.23-23.79,6.68
			c-6.95,4.45-12.42,10.59-16.41,18.4c-3.99,7.82-5.98,16.88-5.98,27.19c0,10.16,2.11,19.15,6.33,26.96
			c4.22,7.82,10.08,13.95,17.58,18.4c7.5,4.45,16.1,6.68,25.78,6.68c6.1,0,12.23-1.06,18.4-3.16c6.17-2.11,11.05-4.88,14.65-8.32
			c1.25-1.25,2.77-1.91,4.57-1.99c1.8-0.08,3.32,0.43,4.57,1.52c1.72,1.41,2.61,2.97,2.7,4.69c0.08,1.72-0.67,3.28-2.23,4.69
			c-5,4.53-11.53,8.28-19.57,11.25C353.83,411.73,346.14,413.22,338.79,413.22z"/>
		<path class="st2" d="M414.74,301.17c-1.88,0-3.4-0.58-4.57-1.76c-1.17-1.17-1.76-2.7-1.76-4.57s0.58-3.4,1.76-4.57
			c1.17-1.17,2.7-1.76,4.57-1.76h63.53c1.88,0,3.4,0.58,4.57,1.76c1.17,1.17,1.76,2.7,1.76,4.57s-0.59,3.4-1.76,4.57
			c-1.17,1.17-2.7,1.76-4.57,1.76H414.74z M477.33,412.05c-8.6-0.15-16.26-2.15-22.97-5.98c-6.72-3.83-11.95-9.14-15.71-15.94
			c-3.75-6.8-5.63-14.49-5.63-23.09V250.3c0-2.19,0.66-3.94,1.99-5.27c1.33-1.33,3.01-1.99,5.04-1.99c2.19,0,3.95,0.67,5.28,1.99
			c1.33,1.33,1.99,3.09,1.99,5.27v116.74c0,9.07,2.81,16.45,8.44,22.15c5.63,5.71,12.89,8.56,21.8,8.56h5.16
			c2.19,0,3.94,0.67,5.27,1.99c1.33,1.33,1.99,3.09,1.99,5.28c0,2.03-0.67,3.71-1.99,5.04c-1.33,1.33-3.09,1.99-5.27,1.99H477.33z"
			/>
		<path class="st2" d="M577.9,413.45c-12.5,0-23.72-2.85-33.64-8.56c-9.92-5.7-17.74-13.51-23.44-23.44
			c-5.7-9.92-8.56-21.06-8.56-33.4c0-12.5,2.86-23.71,8.56-33.64c5.7-9.92,13.52-17.73,23.44-23.44c9.92-5.7,21.14-8.56,33.64-8.56
			c12.5,0,23.67,2.85,33.52,8.56c9.85,5.71,17.61,13.52,23.32,23.44c5.7,9.93,8.56,21.14,8.56,33.64l-5.86,9.38
			c0,10.63-2.62,20.16-7.86,28.6c-5.24,8.44-12.3,15.12-21.21,20.04C599.46,410.99,589.3,413.45,577.9,413.45z M577.9,400.33
			c9.85,0,18.64-2.3,26.37-6.92c7.73-4.61,13.84-10.86,18.29-18.75c4.45-7.89,6.68-16.76,6.68-26.61c0-10-2.22-18.95-6.68-26.84
			c-4.45-7.89-10.56-14.14-18.29-18.75c-7.73-4.61-16.52-6.92-26.37-6.92c-9.69,0-18.44,2.31-26.26,6.92
			c-7.82,4.61-13.98,10.86-18.51,18.75c-4.54,7.89-6.8,16.84-6.8,26.84c0,9.85,2.26,18.72,6.8,26.61
			c4.53,7.89,10.7,14.15,18.51,18.75C559.46,398.02,568.21,400.33,577.9,400.33z M636.27,412.05c-2.03,0-3.71-0.66-5.04-1.99
			c-1.33-1.33-2-3.01-2-5.04v-42.9l4.45-14.07h9.61v56.96c0,2.03-0.62,3.71-1.87,5.04C640.17,411.38,638.45,412.05,636.27,412.05z"
			/>
		<path class="st2" d="M689.94,256.86c-2.97,0-5.51-1.06-7.62-3.16c-2.11-2.11-3.16-4.73-3.16-7.85c0-3.59,1.13-6.29,3.4-8.09
			c2.26-1.79,4.81-2.7,7.62-2.7c2.66,0,5.12,0.9,7.38,2.7c2.26,1.8,3.4,4.5,3.4,8.09c0,3.13-1.06,5.74-3.17,7.85
			C695.68,255.81,693.07,256.86,689.94,256.86z M690.18,412.05c-2.04,0-3.72-0.66-5.04-1.99c-1.33-1.33-1.99-3.01-1.99-5.04V290.85
			c0-2.19,0.66-3.9,1.99-5.16c1.32-1.25,3.01-1.88,5.04-1.88c2.19,0,3.9,0.63,5.16,1.88c1.25,1.25,1.87,2.97,1.87,5.16v114.16
			c0,2.03-0.62,3.71-1.87,5.04C694.08,411.38,692.36,412.05,690.18,412.05z"/>
		<path class="st2" d="M769.88,412.05c-5.94,0-11.22-1.64-15.82-4.92c-4.61-3.28-8.2-7.81-10.78-13.6
			c-2.58-5.78-3.87-12.5-3.87-20.16V236c0-2.19,0.67-3.9,1.99-5.16c1.33-1.25,3.01-1.88,5.04-1.88c2.19,0,3.9,0.63,5.16,1.88
			c1.25,1.25,1.88,2.97,1.88,5.16v137.37c0,7.19,1.52,13.09,4.57,17.7c3.05,4.61,6.99,6.92,11.84,6.92h5.86
			c1.72,0,3.13,0.63,4.22,1.88c1.09,1.25,1.64,2.97,1.64,5.16c0,2.03-0.62,3.71-1.88,5.04s-2.97,1.99-5.16,1.99H769.88z"/>
		<path class="st2" d="M850.98,413.45c-8.12,0-16.64-1.48-25.55-4.45c-8.91-2.97-16.33-7.97-22.27-15
			c-1.25-1.56-1.76-3.24-1.52-5.04c0.23-1.79,1.21-3.32,2.93-4.57c1.56-1.09,3.24-1.48,5.04-1.17c1.79,0.32,3.24,1.17,4.34,2.58
			c4.53,5.32,10.04,9.03,16.52,11.14c6.48,2.11,13.56,3.16,21.21,3.16c13.13,0,22.43-2.34,27.89-7.03s8.21-10.16,8.21-16.41
			c0-6.09-2.93-11.13-8.79-15.12s-14.89-6.83-27.08-8.56c-15.63-2.19-27.2-6.41-34.7-12.66c-7.5-6.25-11.25-13.51-11.25-21.8
			c0-7.81,1.95-14.42,5.86-19.81c3.9-5.39,9.26-9.45,16.06-12.19c6.8-2.73,14.57-4.1,23.32-4.1c10.63,0,19.61,1.92,26.95,5.74
			c7.35,3.83,13.28,8.95,17.82,15.35c1.25,1.56,1.68,3.24,1.29,5.04c-0.4,1.8-1.61,3.25-3.63,4.34c-1.57,0.78-3.2,1.02-4.92,0.7
			c-1.72-0.31-3.2-1.25-4.45-2.81c-3.91-5-8.64-8.79-14.18-11.37c-5.55-2.58-12-3.87-19.34-3.87c-9.84,0-17.51,2.11-22.97,6.33
			c-5.47,4.22-8.21,9.3-8.21,15.24c0,4.06,1.13,7.62,3.4,10.67c2.26,3.05,5.98,5.63,11.13,7.74c5.16,2.11,12.03,3.79,20.63,5.04
			c11.72,1.56,20.98,4.22,27.78,7.97c6.8,3.75,11.64,8.09,14.53,13.01c2.89,4.92,4.34,10.2,4.34,15.82c0,7.35-2.34,13.75-7.03,19.22
			c-4.69,5.47-10.87,9.65-18.52,12.54C868.17,412.01,859.89,413.45,850.98,413.45z"/>
	</g>
	<path class="st1" d="M241.93,28.17c0,0,129.86,5.16,129.86,131.68"/>
	<path class="st1" d="M241.93,81.45c0,0,84.57,9.68,84.57,92.12"/>
	<path class="st1" d="M480.1,571.83c0,0-113.21-4.44-113.21-113.21"/>
	<path class="st1" d="M480.1,526.02c0,0-73.73-8.32-73.73-79.2"/>
</g>
</svg>
