                      <svg
    id="prefix__Warstwa_1"
    x="0"
    y="0"
    viewBox="0 0 1024 1024"
    xmlSpace="preserve"
    width="1.5em"
    height="1.5em"
  >
    <style>{'.prefix__st0{fill:#fff}'}</style>
    <path
      className="prefix__st0"
      d="M734.2 336.5v434.6H687V227.8h54.9l10.2 34.3c7.6 22.9 12.8 43 23.2 70.1 10.6-27.6 18.9-48.9 27-70.3 3.1-8.2 10.7-27.7 13.3-35.3 0 0 33 0 47.8.1v543.9h-46c0-144.4-1.8-437.4-1.8-437.4s-30.5 43.2-40.6 55.9M595.4 310h48v460.5H512V310.3h44.5v419.4c13.4.6 24 1.1 38.9 1.8V310zM905.7 770.4V142.7H1024v38.5h-69.1v254.1h49.1v40.2h-49.2v254.8h69v40c-38.8.1-77.1.1-118.1.1zM186.3 770V480.7h135.6V770H186.3zM235 521.7v207.1h38.2V521.7H235zM409.9 730.6h71.3v39.9H364.5V396.1h45.4v334.5zM160.5 564.2c-15.7 61.7-31.1 126.7-47.6 188.1-1.3 4.9-5.8 15.1-8.3 17.5H56.4s-2-3.9-2.5-4.9c-1.7-3.4-4.8-9.5-6.3-15.7C32.6 689 16.7 629 0 564.3c15 0 28.5-.1 41.2-.1h10.1s2.5 12.2 4.1 19.9c2.2 10.4 13.2 52.2 27.3 109.8 6.7-30.8 14.6-61 21.9-92.9 5.1-22 5.1-24.5 7.6-36.7 7.7-.1 25.4-.1 48.3-.1z"
    />
  </svg>